{
    "asset" : {
        "generator" : "Khronos glTF Blender I/O v1.8.19",
        "version" : "2.0"
    },
    "scene" : 0,
    "scenes" : [
        {
            "name" : "Scene",
            "nodes" : [
                0
            ]
        }
    ],
    "nodes" : [
        {
            "mesh" : 0,
            "name" : "Cube.009",
            "rotation" : [
                -0.6971510648727417,
                -0.5004854798316956,
                -0.08240346610546112,
                0.5066601634025574
            ],
            "scale" : [
                0.038747258484363556,
                0.5925194621086121,
                0.03823971748352051
            ],
            "translation" : [
                -3.2988409996032715,
                0.0005483627319335938,
                -0.899635374546051
            ]
        }
    ],
    "meshes" : [
        {
            "name" : "Cube.035",
            "primitives" : [
                {
                    "attributes" : {
                        "POSITION" : 0,
                        "NORMAL" : 1,
                        "TEXCOORD_0" : 2
                    },
                    "indices" : 3
                }
            ]
        }
    ],
    "accessors" : [
        {
            "bufferView" : 0,
            "componentType" : 5126,
            "count" : 64928,
            "max" : [
                202.13233947753906,
                17.01770782470703,
                147.7880401611328
            ],
            "min" : [
                -92.7734375,
                -4.419848442077637,
                -76.7582778930664
            ],
            "type" : "VEC3"
        },
        {
            "bufferView" : 1,
            "componentType" : 5126,
            "count" : 64928,
            "type" : "VEC3"
        },
        {
            "bufferView" : 2,
            "componentType" : 5126,
            "count" : 64928,
            "type" : "VEC2"
        },
        {
            "bufferView" : 3,
            "componentType" : 5123,
            "count" : 94320,
            "type" : "SCALAR"
        }
    ],
    "bufferViews" : [
        {
            "buffer" : 0,
            "byteLength" : 779136,
            "byteOffset" : 0
        },
        {
            "buffer" : 0,
            "byteLength" : 779136,
            "byteOffset" : 779136
        },
        {
            "buffer" : 0,
            "byteLength" : 519424,
            "byteOffset" : 1558272
        },
        {
            "buffer" : 0,
            "byteLength" : 188640,
            "byteOffset" : 2077696
        }
    ],
    "buffers" : [
        {
            "byteLength" : 2266336,
            "uri" : "data:application/octet-stream;base64,"
        }
    ]
}
